<?xml version="1.0" standalone="no"?>
<!DOCTYPE svg PUBLIC "-//W3C//DTD SVG 20010904//EN"
 "http://www.w3.org/TR/2001/REC-SVG-20010904/DTD/svg10.dtd">
<svg version="1.0" xmlns="http://www.w3.org/2000/svg"
 width="687.000000pt" height="279.000000pt" viewBox="0 0 687.000000 279.000000"
 preserveAspectRatio="xMidYMid meet">

<g transform="translate(0.000000,279.000000) scale(0.100000,-0.100000)"
fill="#000000" stroke="none">
<path d="M3250 2465 c-80 -14 -194 -51 -251 -80 -156 -81 -291 -220 -377 -391
-111 -220 -108 -525 7 -753 17 -33 31 -63 31 -66 0 -3 -457 -5 -1016 -5
l-1015 0 3 -47 3 -48 1049 -3 c819 -2 1052 -5 1064 -15 12 -10 -175 -13 -934
-17 l-949 -5 0 -45 0 -45 1007 -3 1007 -2 62 -40 c69 -44 185 -91 274 -111 94
-21 294 -16 390 10 87 23 184 66 256 112 l46 29 1016 0 1017 0 0 50 0 50 -961
0 c-852 0 -960 2 -949 15 11 13 149 15 1099 17 l1086 3 0 45 0 45 -1048 3
c-577 1 -1047 5 -1045 10 2 4 17 34 35 67 135 260 113 605 -55 852 -159 234
-395 365 -677 378 -62 3 -129 -1 -175 -10z m262 -374 c57 -27 180 -86 273
-131 l170 -83 -268 -67 c-147 -37 -274 -73 -282 -80 -8 -7 -20 -31 -25 -54
-18 -70 -17 -68 -42 -54 -13 7 -25 16 -28 19 -3 3 -18 13 -35 22 -26 13 -42
25 -92 67 -7 5 -15 10 -20 10 -9 0 -87 53 -91 63 -2 4 -7 7 -12 7 -5 0 -41 22
-80 50 -40 27 -77 51 -82 52 -5 2 -12 21 -15 43 -9 73 0 78 272 134 132 27
243 49 247 50 4 0 53 -21 110 -48z m-546 -246 c19 -15 19 -15 -1 -8 -33 11
-14 -3 55 -38 62 -31 300 -188 328 -216 27 -26 60 -23 211 17 84 23 155 39
157 37 2 -1 -42 -18 -97 -36 -93 -30 -102 -35 -115 -67 -8 -19 -12 -39 -9 -44
9 -15 0 -12 -71 20 -37 16 -63 34 -59 40 3 5 0 8 -7 5 -18 -7 -110 39 -101 50
5 4 3 5 -4 1 -7 -4 -92 34 -193 84 -173 87 -180 92 -180 121 0 21 6 32 23 39
32 13 41 12 63 -5z m957 -26 c-7 -7 -8 -21 -3 -41 6 -20 5 -30 -3 -33 -67 -23
-384 -94 -401 -90 -14 4 -17 3 -8 -3 10 -7 6 -11 -16 -15 -88 -18 -88 -18 -67
-8 17 8 18 10 3 10 -23 1 -23 34 -2 52 13 11 460 135 499 138 5 1 4 -4 -2 -10z
m-1054 -59 c4 0 82 -54 172 -119 90 -66 178 -127 194 -136 29 -16 29 -15 -5
14 -19 17 -70 57 -112 88 -42 32 -75 59 -74 61 2 1 86 -39 187 -89 l184 -92
-54 -13 c-68 -15 -83 -34 -79 -97 2 -26 2 -47 1 -47 -3 0 -82 60 -104 79 -15
12 -160 122 -198 149 -35 25 -103 80 -128 103 -26 24 -31 76 -11 112 11 19 13
20 16 5 2 -10 7 -18 11 -18z m1115 -95 c-18 -27 -48 -40 -65 -29 -7 4 -9 3 -5
-4 8 -13 -119 -57 -135 -46 -8 5 -9 3 -4 -6 6 -10 3 -12 -13 -8 -12 4 -20 2
-17 -2 7 -12 -32 -23 -46 -14 -7 4 -9 3 -6 -3 8 -12 -69 -37 -85 -27 -6 4 -8
3 -5 -3 8 -12 -14 -23 -44 -23 -12 0 -19 7 -19 19 0 15 26 28 131 65 72 25
135 44 140 40 5 -3 9 -1 9 5 0 13 67 34 81 25 7 -4 9 -3 5 4 -6 11 72 43 86
35 4 -2 1 -15 -8 -28z m-1034 -113 c47 -36 118 -99 157 -141 40 -42 70 -68 67
-58 -3 9 -9 17 -13 17 -3 0 -12 9 -19 21 -12 18 -11 19 5 10 10 -6 36 -26 58
-45 l40 -35 -33 -7 c-37 -7 -62 -44 -62 -91 l-1 -28 -32 36 c-34 38 -41 46
-132 159 -33 41 -78 94 -100 118 -38 42 -56 83 -47 109 5 16 8 14 112 -65z
m878 -47 c-1 -14 -7 -25 -13 -25 -5 0 -3 -4 4 -9 12 -8 8 -11 -15 -17 -16 -4
-126 -33 -244 -65 -119 -33 -218 -55 -223 -50 -5 5 -7 23 -5 42 3 32 5 33 78
52 53 13 80 16 91 9 17 -11 111 10 136 30 7 5 16 7 22 4 5 -3 11 -1 13 5 3 9
114 46 145 48 8 1 12 -9 11 -24z m-898 -87 c0 -5 -6 -6 -12 -3 -7 3 -4 0 7 -7
34 -22 87 -79 170 -182 82 -102 81 -101 150 -86 33 7 71 14 85 14 14 1 27 4
30 8 5 7 115 34 180 44 14 3 -9 -9 -50 -25 -41 -17 -83 -35 -92 -40 -10 -6
-23 -8 -31 -5 -18 7 -39 -42 -39 -90 0 -25 -4 -34 -11 -29 -7 4 -84 57 -172
118 -88 61 -192 132 -231 158 -39 26 -76 53 -83 60 -9 12 -10 38 -2 90 0 4 10
7 20 7 11 0 23 5 26 11 7 11 55 -27 55 -43z m817 -85 c-3 -24 -10 -28 -83 -45
-167 -38 -430 -100 -444 -104 -17 -4 -38 40 -33 66 2 9 24 22 49 29 37 11 50
11 69 1 19 -10 35 -10 77 -1 29 7 67 12 83 12 20 0 25 2 17 8 -16 10 46 28
158 46 113 19 111 19 107 -12z m62 -7 c15 -8 20 -16 13 -20 -13 -8 -52 10 -52
24 0 13 10 12 39 -4z m13 -69 c-6 -7 -10 -26 -9 -41 2 -27 -3 -30 -212 -117
-118 -49 -216 -87 -219 -84 -3 3 -7 20 -8 38 -2 28 2 35 27 46 34 15 422 170
428 170 2 1 -1 -5 -7 -12z"/>
<path d="M2960 2006 c0 -5 348 -215 398 -240 44 -22 41 -13 -5 14 -277 166
-393 232 -393 226z"/>
<path d="M3795 1780 c-25 -11 1 -11 35 0 20 6 21 8 5 8 -11 0 -29 -3 -40 -8z"/>
<path d="M3680 1755 c-60 -17 -29 -18 40 0 30 7 44 13 30 13 -14 0 -45 -6 -70
-13z"/>
<path d="M3608 1733 c7 -3 16 -2 19 1 4 3 -2 6 -13 5 -11 0 -14 -3 -6 -6z"/>
<path d="M3748 1733 c7 -3 16 -2 19 1 4 3 -2 6 -13 5 -11 0 -14 -3 -6 -6z"/>
<path d="M3670 1720 c-20 -6 -21 -8 -5 -8 11 0 29 3 40 8 25 11 -1 11 -35 0z"/>
<path d="M3528 1713 c7 -3 16 -2 19 1 4 3 -2 6 -13 5 -11 0 -14 -3 -6 -6z"/>
<path d="M3580 1700 c-20 -6 -21 -8 -5 -8 11 0 31 4 45 8 20 6 21 8 5 8 -11 0
-31 -4 -45 -8z"/>
<path d="M3518 1683 c6 -2 18 -2 25 0 6 3 1 5 -13 5 -14 0 -19 -2 -12 -5z"/>
<path d="M3660 1570 c-8 -5 -10 -10 -5 -10 6 0 17 5 25 10 8 5 11 10 5 10 -5
0 -17 -5 -25 -10z"/>
<path d="M3745 1460 c-13 -5 -14 -9 -5 -9 8 0 24 4 35 9 13 5 14 9 5 9 -8 0
-24 -4 -35 -9z"/>
<path d="M3688 1443 c7 -3 16 -2 19 1 4 3 -2 6 -13 5 -11 0 -14 -3 -6 -6z"/>
<path d="M3568 1413 c7 -3 16 -2 19 1 4 3 -2 6 -13 5 -11 0 -14 -3 -6 -6z"/>
<path d="M3488 1393 c7 -3 16 -2 19 1 4 3 -2 6 -13 5 -11 0 -14 -3 -6 -6z"/>
<path d="M3708 1313 c7 -3 16 -2 19 1 4 3 -2 6 -13 5 -11 0 -14 -3 -6 -6z"/>
<path d="M3608 1293 c7 -3 16 -2 19 1 4 3 -2 6 -13 5 -11 0 -14 -3 -6 -6z"/>
<path d="M3268 1263 c6 -2 18 -2 25 0 6 3 1 5 -13 5 -14 0 -19 -2 -12 -5z"/>
<path d="M3328 1233 c6 -2 18 -2 25 0 6 3 1 5 -13 5 -14 0 -19 -2 -12 -5z"/>
<path d="M3278 1223 c7 -3 16 -2 19 1 4 3 -2 6 -13 5 -11 0 -14 -3 -6 -6z"/>
<path d="M3218 1213 c6 -2 18 -2 25 0 6 3 1 5 -13 5 -14 0 -19 -2 -12 -5z"/>
<path d="M3714 672 c-9 -5 -127 -254 -181 -380 -4 -9 9 -12 46 -12 46 0 53 3
61 25 9 24 14 25 84 25 68 0 76 -2 93 -26 16 -22 25 -25 65 -22 l46 3 -84 184
c-99 217 -102 221 -130 203z m41 -209 c21 -50 20 -53 -25 -53 -45 0 -46 4 -24
60 18 45 28 44 49 -7z"/>
<path d="M2027 663 c-4 -3 -7 -91 -7 -195 l0 -188 121 0 120 0 -3 43 -3 42
-67 3 -68 3 0 134 c0 73 -3 140 -6 149 -6 16 -73 23 -87 9z"/>
<path d="M2364 656 c-3 -8 -4 -27 -2 -43 2 -20 9 -29 26 -31 21 -3 22 -7 22
-107 0 -100 -1 -104 -22 -107 -19 -2 -24 -10 -26 -45 l-3 -43 96 0 96 0 -3 43
c-2 35 -7 43 -26 45 -22 3 -23 6 -20 105 3 98 4 102 26 105 20 3 23 8 20 45
l-3 42 -88 3 c-69 2 -88 0 -93 -12z"/>
<path d="M2680 475 l0 -195 105 0 c116 0 151 11 174 53 20 38 19 102 -3 126
-16 18 -17 24 -6 51 25 59 -7 124 -73 149 -16 6 -66 11 -113 11 l-84 0 0 -195z
m178 73 c3 -27 2 -28 -42 -28 -42 0 -46 2 -46 23 0 32 9 38 50 35 30 -3 35 -7
38 -30z m3 -118 c25 -14 24 -46 -1 -60 -11 -6 -36 -8 -55 -4 -30 5 -35 10 -35
34 0 38 46 53 91 30z"/>
<path d="M3127 663 c-4 -3 -7 -91 -7 -195 l0 -188 44 0 45 0 3 53 c3 50 4 52
33 52 25 0 34 -8 59 -52 l30 -53 53 0 c29 0 53 3 53 7 0 4 -16 34 -36 65 l-35
58 25 30 c37 44 42 88 17 144 -28 64 -75 85 -192 86 -47 0 -89 -3 -92 -7z
m187 -99 c19 -18 20 -38 6 -65 -8 -15 -22 -19 -60 -19 l-50 0 0 43 c0 24 3 47
7 50 13 13 82 7 97 -9z"/>
<path d="M4040 475 l0 -195 44 0 45 0 3 53 c3 48 5 52 30 55 22 3 31 -5 60
-52 l33 -55 53 -1 c28 0 52 4 52 10 0 5 -16 35 -36 65 l-35 56 24 29 c36 42
42 91 18 145 -28 64 -76 84 -198 85 l-93 0 0 -195z m191 95 c22 -12 26 -59 7
-78 -7 -7 -34 -12 -60 -12 l-48 0 0 43 c0 24 3 47 7 50 10 11 72 8 94 -3z"/>
<path d="M4446 662 c-2 -4 26 -56 62 -116 l67 -109 -2 -79 -1 -78 49 0 49 0 0
83 0 83 66 104 c40 63 62 106 56 112 -5 5 -29 8 -53 6 -42 -3 -45 -5 -79 -66
-39 -72 -37 -72 -92 22 -26 44 -30 46 -72 46 -25 0 -47 -3 -50 -8z"/>
<path d="M2002 208 l3 -23 1375 0 1375 0 3 23 3 22 -1381 0 -1381 0 3 -22z"/>
</g>
</svg>
